<?xml version="1.0" encoding="utf-8"?>
<?xml-stylesheet type="text/xsl" href="rss1.xsl"?>
<rss version="2.0" xmlns:atom="http://www.w3.org/2005/Atom" xmlns:content="http://purl.org/rss/1.0/modules/content/" xmlns:dc="http://purl.org/dc/elements/1.1/" xmlns:media="http://search.yahoo.com/mrss/">
<channel>
 <title>Getty</title>
 <link>http://www.gettyimg.com/</link>
 <atom:link href="http://www.gettyimg.com/" rel="self" type="application/rss+xml" />

 
                <item>
                <title><![CDATA[【Requests】[REQ AUD] - Sophie Ellis Bextor Hana Deluxe (Qobuz, Amazon)]]></title>
                <link><![CDATA[https://sharemania.us/threads/sophie-ellis-bextor-hana-deluxe-qobuz-amazon.232944/]]></link>
                <description><![CDATA[<article>
<blockquote class="messageText SelectQuoteContainer ugc baseHtml">
<span style="font-family: 'Georgia'">Hello ! <br>
<br>
I'm looking for the deluxe version of Sophie Ellis-Bextor's HANA, in flac. I'm mainly looking for the bonus tracks.<br>
</span><br>
<div style="text-align: center"><span style="font-family: 'Georgia'"><img src="https://static.qobuz.com/images/covers/uc/ix/wg7r73n91ixuc_300.jpg" class="bbCodeImage LbImage" alt="[​IMG]" data-url="https://static.qobuz.com/images/covers/uc/ix/wg7r73n91ixuc_300.jpg" style=""> <br>
13 - Blossom of the Night (Bonus Track)<br>
14 - Lost in the Sunshine (Acidtone Radio Edit)<br>
15 - Lost in the Sunshine (Acidtone Remix)<br>
16 - Breaking the Circle (Sudlow Remix)<br>
17 - Breaking the Circle (Sudlow Club Mix)<br>
18 - Lost in the Sunshine (Sudlow Radio Mix)<br>
19 - Lost in the Sunshine (Sudlow Club Mix)<br>
20 - Breaking the Circle (feat. BBC Concert Orchestra) [Radio 2 Piano Room]<br>
21 -Hypnotized<br>
<a href="https://www.qobuz.com/us-en/album/hana-sophie-ellis-bextor/wg7r73n91ixuc" target="_blank" class="externalLink" rel="nofollow">https://www.qobuz.com/us-en/album/hana-sophie-ellis-bextor/wg7r73n91ixuc</a><br>
<a href="https://music.amazon.com/albums/B0CNS62HNS" target="_blank" class="externalLink" rel="nofollow">https://music.amazon.com/albums/B0CNS62HNS</a><br>
<br>
</span>​</div><span style="font-family: 'Georgia'">Thanks for your help ! </span>
<div class="messageTextEndMarker">&nbsp;</div>
</blockquote>
</article>]]></description>
                <author><![CDATA[Cristalex]]></author>
                </item>

                
                <item>
                <title><![CDATA[【HD Live Performances】WEB-DL - RHCP En Vivo Estadio River Plate, Buenos Aires, Argentina 11-24-2023 FLOW.WEB-DL.1080p-Tknobi]]></title>
                <link><![CDATA[https://sharemania.us/threads/rhcp-en-vivo-estadio-river-plate-buenos-aires-argentina-11-24-2023-flow-web-dl-1080p-tknobi.232942/]]></link>
                <description><![CDATA[<article>
<blockquote class="messageText SelectQuoteContainer ugc baseHtml">
<div style="text-align: center"><img src="https://i.postimg.cc/rshxsPj5/RHCP-En-Vivo-Estadio-River-Plate-Buenos-Aires-Argentina-11-24-2023-FLOW-WEB-DL-1080p-Tknobi-mkv.jpg" class="bbCodeImage LbImage" alt="[​IMG]" data-url="https://i.postimg.cc/rshxsPj5/RHCP-En-Vivo-Estadio-River-Plate-Buenos-Aires-Argentina-11-24-2023-FLOW-WEB-DL-1080p-Tknobi-mkv.jpg" style=""> <br>
​</div>
<div class="ToggleTriggerAnchor bbCodeSpoilerContainer">
<button type="button" class="button bbCodeSpoilerButton ToggleTrigger Tooltip JsOnly" data-target="> .SpoilerTarget"><span>Spoiler: <span class="SpoilerTitle">MediaInfo</span></span></button>
<div class="SpoilerTarget bbCodeSpoilerText">Format : Matroska<br>
Format version : Version 4<br>
File size : 3.83 GiB<br>
Duration : 1 h 50 min<br>
Overall bit rate : 4 983 kb/s<br>
Writing application : Lavf60.3.100<br>
Writing library : Lavf60.3.100<br>
ErrorDetectionType : Per level 1<br>
<br>
Video<br>
ID : 1<br>
Format : AVC<br>
Format/Info : Advanced Video Codec<br>
Format profile : High@L4<br>
Format settings : CABAC / 3 Ref Frames<br>
Format settings, CABAC : Yes<br>
Format settings, Reference frames : 3 frames<br>
Format settings, GOP : M=1, N=60<br>
Codec ID : V_MPEG4/ISO/AVC<br>
Duration : 1 h 50 min<br>
Width : 1 920 pixels<br>
Height : 1 080 pixels<br>
Display aspect ratio : 16:9<br>
Frame rate mode : Constant<br>
Frame rate : 29.970 (30000/1001) FPS<br>
Color space : YUV<br>
Chroma subsampling : 4:2:0<br>
Bit depth : 8 bits<br>
Scan type : Progressive<br>
Writing library : AVC<br>
Language : English<br>
Default : Yes<br>
Forced : No<br>
VENDOR_ID : TELE<br>
<br>
Audio<br>
ID : 2<br>
Format : AAC LC SBR<br>
Format/Info : Advanced Audio Codec Low Complexity with Spectral Band Replication<br>
Commercial name : HE-AAC<br>
Format settings : Implicit<br>
Codec ID : A_AAC-2<br>
Duration : 1 h 50 min<br>
Channel(s) : 2 channels<br>
Channel layout : L R<br>
Sampling rate : 48.0 kHz<br>
Frame rate : 23.438 FPS (2048 SPF)<br>
Compression mode : Lossy<br>
Language : Spanish<br>
Default : Yes<br>
Forced : No<br>
VENDOR_ID : [0][0][0][0]</div>
</div><br>
<div style="text-align: center">
<div class="bbCodeBlock bbCodeVfcHH HiddenContent">
<div class="attribution type">Hidden Content:</div>
<blockquote>You must reply before you can see the hidden data contained here.</blockquote>
</div></div>
<div class="messageTextEndMarker">&nbsp;</div>
</blockquote>
</article>]]></description>
                <author><![CDATA[tknobi]]></author>
                </item>

                
                <item>
                <title><![CDATA[【HD Live Performances】WEB-RiP - Jung Kook ‘GOLDEN’ Live On Stage (2023-11-20) - BTS Weverse WEB-RiP 1080p - liljaa]]></title>
                <link><![CDATA[https://sharemania.us/threads/jung-kook-%E2%80%98golden%E2%80%99-live-on-stage-2023-11-20-bts-weverse-web-rip-1080p-liljaa.232941/]]></link>
                <description><![CDATA[<article>
<blockquote class="messageText SelectQuoteContainer ugc baseHtml">
gracias
<div class="messageTextEndMarker">&nbsp;</div>
</blockquote>
</article>]]></description>
                <author><![CDATA[Liljaa]]></author>
                </item>

                
                <item>
                <title><![CDATA[【HD Live Performances】WEB-DL - David Guetta - Live Main Square Festival 2023-07-03.1080p.x264-iUF]]></title>
                <link><![CDATA[https://sharemania.us/threads/david-guetta-live-main-square-festival-2023-07-03-1080p-x264-iuf.232943/]]></link>
                <description><![CDATA[<article>
<blockquote class="messageText SelectQuoteContainer ugc baseHtml">
<img src="https://images2.imgbox.com/d9/2a/YyiRPlXf_o.jpg" class="bbCodeImage LbImage" alt="[​IMG]" data-url="https://images2.imgbox.com/d9/2a/YyiRPlXf_o.jpg" style=""><br>
<br>
<i>Setlist</i><br>
<ul>
<li>Standing Next to You</li>
<li>Yes or No</li>
<li>Somebody</li>
<li>Closer to You</li>
<li>3D</li>
<li>G.C.F in Budapest</li>
<li>Hate You</li>
<li>Shot Glass of Tears</li>
<li>Too Sad to Dance</li>
<li>Please Don't Change</li>
<li>Seven<br>
<br>
Encore</li>
<li>Magic Shop</li>
<li>Still With You</li>
</ul><br>
<div class="ToggleTriggerAnchor bbCodeSpoilerContainer">
<button type="button" class="button bbCodeSpoilerButton ToggleTrigger Tooltip JsOnly" data-target="> .SpoilerTarget"><span>Spoiler: <span class="SpoilerTitle">MediaInfo</span></span></button>
<div class="SpoilerTarget bbCodeSpoilerText">MediaInfo<br>
<div class="bbCodeBlock bbCodeCode">
<div class="type">Code:</div>
<pre>General
Complete name                            : Jung Kook ‘GOLDEN’ Live On Stage\Jung Kook ‘GOLDEN’ Live On Stage (2023-11-20) - BTS Weverse WEB-RiP 1080p - liljaa.mp4
Format                                   : MPEG-4
Format profile                           : Base Media
Codec ID                                 : isom (isom/avc1)
File size                                : 2.55 GiB
Duration                                 : 1 h 51 min
Overall bit rate mode                    : Variable
Overall bit rate                         : 3 259 kb/s
Frame rate                               : 30.000 FPS
Movie name                               : Jung Kook ‘GOLDEN’ Live On Stage
Album                                    : Jung Kook ‘GOLDEN’ Live On Stage (2023-11-20)
Album/Performer                          : Jung Kook
Performer                                : Jung Kook
Genre                                    : Pop
Recorded date                            : 2023
Encoded date                             : 2023-11-26 15:58:14 UTC
Tagged date                              : 2023-11-26 15:58:14 UTC
Writing application                      : Yamb 2.1.0.0 [http://yamb.unite-video.com]
Cover                                    : Yes
Comment                                  : Ripped by liljaa

Video
ID                                       : 1
Format                                   : AVC
Format/Info                              : Advanced Video Codec
Format profile                           : High@L4
Format settings                          : CABAC / 1 Ref Frames
Format settings, CABAC                   : Yes
Format settings, Reference frames        : 1 frame
Format settings, GOP                     : M=1, N=30
Codec ID                                 : avc1
Codec ID/Info                            : Advanced Video Coding
Duration                                 : 1 h 51 min
Bit rate mode                            : Variable
Bit rate                                 : 3 060 kb/s
Maximum bit rate                         : 40.0 Mb/s
Width                                    : 1 920 pixels
Height                                   : 1 080 pixels
Display aspect ratio                     : 16:9
Frame rate mode                          : Constant
Frame rate                               : 30.000 FPS
Color space                              : YUV
Chroma subsampling                       : 4:2:0
Bit depth                                : 8 bits
Scan type                                : Progressive
Bits/(Pixel*Frame)                       : 0.049
Stream size                              : 2.39 GiB (94%)
Encoded date                             : 2023-11-26 15:58:14 UTC
Tagged date                              : 2023-11-26 15:58:55 UTC
Color range                              : Limited
Color primaries                          : BT.709
Transfer characteristics                 : BT.709
Matrix coefficients                      : BT.709
Codec configuration box                  : avcC

Audio
ID                                       : 2
Format                                   : AAC LC
Format/Info                              : Advanced Audio Codec Low Complexity
Codec ID                                 : mp4a-40-2
Duration                                 : 1 h 51 min
Bit rate mode                            : Variable
Bit rate                                 : 192 kb/s
Maximum bit rate                         : 201 kb/s
Channel(s)                               : 2 channels
Channel layout                           : L R
Sampling rate                            : 44.1 kHz
Frame rate                               : 43.066 FPS (1024 SPF)
Compression mode                         : Lossy
Stream size                              : 154 MiB (6%)
Encoded date                             : 2023-11-26 15:58:48 UTC
Tagged date                              : 2023-11-26 15:58:55 UTC

Text #1
ID                                       : 3
Format                                   : Timed Text
Codec ID                                 : tx3g
Duration                                 : 1 h 48 min
Bit rate mode                            : Variable
Bit rate                                 : 30 b/s
Frame rate                               : 0.183 FPS
Stream size                              : 23.7 KiB (0%)
Title                                    : English
Language                                 : English
Forced                                   : No
Encoded date                             : 2023-11-26 15:58:54 UTC
Tagged date                              : 2023-11-26 15:58:55 UTC
Count of events                          : 650

Text #2
ID                                       : 4
Format                                   : Timed Text
Codec ID                                 : tx3g
Duration                                 : 1 h 48 min
Bit rate mode                            : Variable
Bit rate                                 : 31 b/s
Frame rate                               : 0.183 FPS
Stream size                              : 25.0 KiB (0%)
Title                                    : Spanish
Language                                 : Spanish
Forced                                   : No
Encoded date                             : 2023-11-26 15:58:54 UTC
Tagged date                              : 2023-11-26 15:58:55 UTC
Count of events                          : 650

Text #3
ID                                       : 5
Format                                   : Timed Text
Codec ID                                 : tx3g
Duration                                 : 1 h 48 min
Bit rate mode                            : Variable
Bit rate                                 : 31 b/s
Frame rate                               : 0.183 FPS
Stream size                              : 24.8 KiB (0%)
Title                                    : Indonesian
Language                                 : Indonesian
Forced                                   : No
Encoded date                             : 2023-11-26 15:58:54 UTC
Tagged date                              : 2023-11-26 15:58:55 UTC
Count of events                          : 650

Text #4
ID                                       : 6
Format                                   : Timed Text
Codec ID                                 : tx3g
Duration                                 : 1 h 48 min
Bit rate mode                            : Variable
Bit rate                                 : 37 b/s
Frame rate                               : 0.183 FPS
Stream size                              : 29.4 KiB (0%)
Title                                    : Japanese
Language                                 : Japanese
Forced                                   : No
Encoded date                             : 2023-11-26 15:58:54 UTC
Tagged date                              : 2023-11-26 15:58:55 UTC
Count of events                          : 650

Text #5
ID                                       : 7
Format                                   : Timed Text
Codec ID                                 : tx3g
Duration                                 : 1 h 48 min
Bit rate mode                            : Variable
Bit rate                                 : 34 b/s
Frame rate                               : 0.183 FPS
Stream size                              : 26.8 KiB (0%)
Title                                    : Korean
Language                                 : Korean
Forced                                   : No
Encoded date                             : 2023-11-26 15:58:55 UTC
Tagged date                              : 2023-11-26 15:58:55 UTC
Count of events                          : 650

Text #6
ID                                       : 8
Format                                   : Timed Text
Codec ID                                 : tx3g
Duration                                 : 1 h 48 min
Bit rate mode                            : Variable
Bit rate                                 : 71 b/s
Frame rate                               : 0.183 FPS
Stream size                              : 56.3 KiB (0%)
Title                                    : Thai
Language                                 : Thai
Forced                                   : No
Encoded date                             : 2023-11-26 15:58:55 UTC
Tagged date                              : 2023-11-26 15:58:55 UTC
Count of events                          : 650

Text #7
ID                                       : 9
Format                                   : Timed Text
Codec ID                                 : tx3g
Duration                                 : 1 h 48 min
Bit rate mode                            : Variable
Bit rate                                 : 34 b/s
Frame rate                               : 0.164 FPS
Stream size                              : 27.1 KiB (0%)
Title                                    : Vietnamese
Language                                 : Vietnamese
Forced                                   : No
Encoded date                             : 2023-11-26 15:58:55 UTC
Tagged date                              : 2023-11-26 15:58:55 UTC
Count of events                          : 582

Text #8
ID                                       : 10
Format                                   : Timed Text
Codec ID                                 : tx3g
Duration                                 : 1 h 48 min
Bit rate mode                            : Variable
Bit rate                                 : 25 b/s
Frame rate                               : 0.183 FPS
Stream size                              : 20.3 KiB (0%)
Title                                    : Simplified Chinese
Language                                 : Chinese
Forced                                   : No
Encoded date                             : 2023-11-26 15:58:55 UTC
Tagged date                              : 2023-11-26 15:58:55 UTC
Count of events                          : 650

Text #9
ID                                       : 11
Format                                   : Timed Text
Codec ID                                 : tx3g
Duration                                 : 1 h 48 min
Bit rate mode                            : Variable
Bit rate                                 : 25 b/s
Frame rate                               : 0.183 FPS
Stream size                              : 20.3 KiB (0%)
Title                                    : Traditional Chinese
Language                                 : Chinese
Forced                                   : No
Encoded date                             : 2023-11-26 15:58:55 UTC
Tagged date                              : 2023-11-26 15:58:55 UTC
Count of events                          : 650
</pre>
</div></div>
</div><br>
<div class="bbCodeBlock bbCodeVfcHH HiddenContent">
<div class="attribution type">Hidden Content:</div>
<blockquote>You must either reply or click 'Like' to see the hidden information contained here.</blockquote>
</div>
<div class="messageTextEndMarker">&nbsp;</div>
</blockquote>
</article>]]></description>
                <author><![CDATA[tknobi]]></author>
                </item>

                </channel></rss>